<?xml version="1.0" encoding="utf-8"?>
<!-- Generator: Fusion 360, Shaper Origin Export Add-In, Version 1.7.0  -->
<svg xmlns="http://www.w3.org/2000/svg" xmlns:xlink="http://www.w3.org/1999/xlink" xmlns:shaper="http://www.shapertools.com/namespaces/shaper" shaper:fusionaddin="version:1.7.0" width="4.4474167cm" height="4.330599cm" version="1.1" x="0cm" y="0cm" viewBox="0 0 4.4474167 4.330599" enable-background="new 0 0 4.4474167 4.330599" xml:space="preserve"><path d="M-1.6847646,-0.4601079 A0.3175,0.3175 180 0,1 -1.3672646,-0.7776079 L2.4451521,-0.7776079 2.4451521,-0.1123084 2.7626521,-0.1123084 2.7626521,2.8876916 2.4451521,2.8876916 2.4451521,3.5529911 0.7002354,3.5529911 A3.802558,3.802558 90 0,1 -1.178956,3.0561989 A1,1 119.6164431 0,1 -1.6847646,2.1868457 L-1.6847646,-0.4601079z" transform="matrix(1,0,0,-1,1.6847646,3.5529911)" fill="rgb(0,0,0)" stroke-linecap="round" stroke-linejoin="round" /><path d="M0.9451521,-0.2742219 L0.9451521,-0.5917219 0.4451521,-0.5917219 0.4451521,-0.2742219 0.9451521,-0.2742219z" transform="matrix(1,0,0,-1,1.6847646,3.5529911)" fill="rgb(255,255,255)" stroke="rgb(0,0,0)" stroke-width="0.0010cm" stroke-linecap="round" stroke-linejoin="round" /><path d="M1.6462131,0.7069756 a0.15,0.15 0 1,1 0.3,0 a0.15,0.15 0 1,1 -0.3,0z" transform="matrix(1,0,0,-1,1.6847646,3.5529911)" fill="rgb(255,255,255)" stroke="rgb(0,0,0)" stroke-width="0.0010cm" stroke-linecap="round" stroke-linejoin="round" /><path d="M-0.5458179,0.7069756 a0.15,0.15 0 1,1 0.3,0 a0.15,0.15 0 1,1 -0.3,0z" transform="matrix(1,0,0,-1,1.6847646,3.5529911)" fill="rgb(255,255,255)" stroke="rgb(0,0,0)" stroke-width="0.0010cm" stroke-linecap="round" stroke-linejoin="round" /><path d="M-1.0497646,2.1496337 L-1.0497646,-0.1123084 -1.3672646,-0.1123084 -1.3672646,2.1496337 -1.0497646,2.1496337z" transform="matrix(1,0,0,-1,1.6847646,3.5529911)" fill="rgb(255,255,255)" stroke="rgb(0,0,0)" stroke-width="0.0010cm" stroke-linecap="round" stroke-linejoin="round" /><path d="M1.6462131,2.8990066 a0.15,0.15 0 1,1 0.3,0 a0.15,0.15 0 1,1 -0.3,0z" transform="matrix(1,0,0,-1,1.6847646,3.5529911)" fill="rgb(255,255,255)" stroke="rgb(0,0,0)" stroke-width="0.0010cm" stroke-linecap="round" stroke-linejoin="round" /><path d="M-0.3997646,1.8029911 a1.1,1.1 0 1,1 2.2,0 a1.1,1.1 0 1,1 -2.2,0z" transform="matrix(1,0,0,-1,1.6847646,3.5529911)" fill="rgb(255,255,255)" stroke="rgb(0,0,0)" stroke-width="0.0010cm" stroke-linecap="round" stroke-linejoin="round" /></svg>