<?xml version="1.0" encoding="utf-8"?>
<!-- Generator: Fusion 360, Shaper Origin Export Add-In, Version 1.7.0  -->
<svg xmlns="http://www.w3.org/2000/svg" xmlns:xlink="http://www.w3.org/1999/xlink" xmlns:shaper="http://www.shapertools.com/namespaces/shaper" shaper:fusionaddin="version:1.7.0" width="3.4272416cm" height="2.8175cm" version="1.1" x="0cm" y="0cm" viewBox="0 0 3.4272416 2.8175" enable-background="new 0 0 3.4272416 2.8175" xml:space="preserve"><path d="M-1.7136208,2.045625 L-1.7136208,-0.136875 -1.0483213,-0.136875 -1.0483213,-0.454375 1.2136208,-0.454375 1.2136208,-0.136875 1.7136208,-0.136875 1.7136208,2.045625 1.7135748,2.045625 A0.3175,0.3175 359.0249488 0,1 1.7136208,2.0510279 L1.4567186,2.0510279 1.4567186,2.363125 -1.0432814,2.363125 -1.0432814,2.045625 -1.7136208,2.045625z" transform="matrix(1,0,0,-1,1.7136208,2.363125)" fill="rgb(0,0,0)" stroke-linecap="round" stroke-linejoin="round" /><path d="M0.75,0.454375 L-0.75,0.454375 A0.5,0.5 270 0,0 -0.75,1.454375 L0.75,1.454375 A0.5,0.5 90 0,0 0.75,0.454375z" transform="matrix(1,0,0,-1,1.7136208,2.363125)" fill="rgb(255,255,255)" stroke="rgb(0,0,0)" stroke-width="0.0010cm" stroke-linecap="round" stroke-linejoin="round" /></svg>