<?xml version="1.0" encoding="utf-8"?>
<!-- Generator: Fusion 360, Shaper Origin Export Add-In, Version 1.7.0  -->
<svg xmlns="http://www.w3.org/2000/svg" xmlns:xlink="http://www.w3.org/1999/xlink" xmlns:shaper="http://www.shapertools.com/namespaces/shaper" shaper:fusionaddin="version:1.7.0" width="1.7458066cm" height="2.7694358cm" version="1.1" x="0cm" y="0cm" viewBox="0 0 1.7458066 2.7694358" enable-background="new 0 0 1.7458066 2.7694358" xml:space="preserve"><path d="M-0.2113299,0.2705211 A0.95,0.95 146.4151821 0,1 0.3758913,-1.182787 L0.3758911,-1.3827876 1.3758911,-1.3827876 1.3758911,-1.2327876 A0.25,0.25 0 0,1 1.1258911,-0.9827876 L0.8076967,-0.9827876 A0.7969145,0.7969145 249.1148118 0,0 0.9361626,0.5433369 A0.15,0.15 139.5554464 0,0 1.1518838,0.5564127 A0.7969145,0.7969145 85.675609 0,0 1.3270864,0.5231539 L1.3601722,0.6562958 A1.1,1.1 269.1812189 0,0 0.342037,1.38049 A1.2896831,1.2896831 84.3986289 0,1 -0.1528926,1.3327184 A1.05,1.05 27.2868539 0,0 -0.2113299,0.2705211z" transform="matrix(1,0,0,-1,0.3699154,1.3866482)" fill="rgb(0,0,0)" stroke-linecap="round" stroke-linejoin="round" /><path d="M0.1516936,1.0334461 a0.1,0.1 0 1,1 0.2,0 a0.1,0.1 0 1,1 -0.2,0z" transform="matrix(1,0,0,-1,0.3699154,1.3866482)" fill="rgb(255,255,255)" stroke="rgb(0,0,0)" stroke-width="0.0010cm" stroke-linecap="round" stroke-linejoin="round" /><path d="M0.5553662,0.6305666 a0.1,0.1 0 1,1 0.2,0 a0.1,0.1 0 1,1 -0.2,0z" transform="matrix(1,0,0,-1,0.3699154,1.3866482)" fill="rgb(255,255,255)" stroke="rgb(0,0,0)" stroke-width="0.0010cm" stroke-linecap="round" stroke-linejoin="round" /><path d="M0.459565,-1.1992131 a0.125,0.125 0 1,1 0.25,0 a0.125,0.125 0 1,1 -0.25,0z" transform="matrix(1,0,0,-1,0.3699154,1.3866482)" fill="rgb(255,255,255)" stroke="rgb(0,0,0)" stroke-width="0.0010cm" stroke-linecap="round" stroke-linejoin="round" /><path d="M1.0264261,-1.1992131 a0.125,0.125 0 1,1 0.25,0 a0.125,0.125 0 1,1 -0.25,0z" transform="matrix(1,0,0,-1,0.3699154,1.3866482)" fill="rgb(255,255,255)" stroke="rgb(0,0,0)" stroke-width="0.0010cm" stroke-linecap="round" stroke-linejoin="round" /></svg>