<?xml version="1.0" encoding="utf-8"?>
<!-- Generator: Fusion 360, Shaper Origin Export Add-In, Version 1.7.0  -->
<svg xmlns="http://www.w3.org/2000/svg" xmlns:xlink="http://www.w3.org/1999/xlink" xmlns:shaper="http://www.shapertools.com/namespaces/shaper" shaper:fusionaddin="version:1.7.0" width="7.2525001cm" height="1.4434378cm" version="1.1" x="0cm" y="0cm" viewBox="0 0 7.2525001 1.4434378" enable-background="new 0 0 7.2525001 1.4434378" xml:space="preserve"><path d="M-1.0102245,0.2358189 A0.5,0.5 90 0,1 -1.4432372,-0.0141811 A0.5,0.5 330 0,0 -1.8762499,-0.2641811 L-2.0102245,-0.2641811 A0.5,0.5 270 0,0 -2.4432372,-0.0141811 A0.5,0.5 30 0,1 -2.8762499,0.2358189 L-2.99125,0.2358189 A0.635,0.635 90 0,1 -3.62625,-0.3991811 L-3.62625,-0.3992189 -2.8262499,-0.3992189 -2.8262499,-0.7217189 -0.9262499,-0.7217189 -0.9262499,-0.3992189 0.3912501,-0.3992189 0.3912501,-0.7217189 2.7912501,-0.7217189 2.7912501,-0.3992189 3.62625,-0.3992189 3.62625,0.7217189 3.3087501,0.7217189 3.3087501,0.2358189 -1.0102245,0.2358189z" transform="matrix(1,0,0,-1,3.62625,0.7217189)" fill="rgb(0,0,0)" stroke-linecap="round" stroke-linejoin="round" /><path d="M-0.5937499,-0.0816811 a0.15,0.15 0 1,1 0.3,0 a0.15,0.15 0 1,1 -0.3,0z" transform="matrix(1,0,0,-1,3.62625,0.7217189)" fill="rgb(255,255,255)" stroke="rgb(0,0,0)" stroke-width="0.0010cm" stroke-linecap="round" stroke-linejoin="round" /></svg>