<?xml version="1.0" encoding="utf-8"?>
<!-- Generator: Fusion 360, Shaper Origin Export Add-In, Version 1.7.0  -->
<svg xmlns="http://www.w3.org/2000/svg" xmlns:xlink="http://www.w3.org/1999/xlink" xmlns:shaper="http://www.shapertools.com/namespaces/shaper" shaper:fusionaddin="version:1.7.0" width="2.1468cm" height="2cm" version="1.1" x="0cm" y="0cm" viewBox="0 0 2.1468 2" enable-background="new 0 0 2.1468 2" xml:space="preserve"><path d="M0.8784061,0.5187057 A0.7,0.7 18.2061403 0,1 0.2134491,1 L0.0734,1 0.0734,0.5 -1.0734,0.5 -1.0734,-0.5 0.0734,-0.5 0.0734,-1 1.0734,-1 1.0734,-0.7757706 0.8734,-0.7757706 A0.1,0.1 270 0,0 0.7734,-0.6757706 L0.7734,-0.5257706 A0.1,0.1 180 0,0 0.8734,-0.4257706 L1.0734,-0.4257706 1.0734,0.4499494 0.9734,0.4499494 A0.1,0.1 270 0,0 0.8784061,0.5187057z" transform="matrix(1,0,0,-1,1.0734,1)" fill="rgb(0,0,0)" stroke-linecap="round" stroke-linejoin="round" /></svg>