<?xml version="1.0" encoding="utf-8"?>
<!-- Generator: Fusion 360, Shaper Origin Export Add-In, Version 1.7.0  -->
<svg xmlns="http://www.w3.org/2000/svg" xmlns:xlink="http://www.w3.org/1999/xlink" xmlns:shaper="http://www.shapertools.com/namespaces/shaper" shaper:fusionaddin="version:1.7.0" width="16.3316565cm" height="5.2588708cm" version="1.1" x="0cm" y="0cm" viewBox="0 0 16.3316565 5.2588708" enable-background="new 0 0 16.3316565 5.2588708" xml:space="preserve"><path d="M-8.089315,-1.8361518 A1,1 40.6227119 0,0 -7.8483283,-2.4872269 L-7.8483283,-2.6294354 -5.3540816,-2.6294354 A1,1 161.4881973 0,0 -4.4058233,-1.9469354 L-2.6514773,-1.9469354 A1,1 90 0,0 -1.703219,-2.6294354 L-1.3078283,-2.6294354 A1,1 172.142692 0,0 -0.8228042,-1.9033666 A0.3175,0.3175 300.3703632 0,1 -0.6658283,-1.6294354 L3.2016717,-1.6294354 A0.3175,0.3175 180 0,1 3.5191717,-1.9469354 L5.5308283,-1.9469354 A0.3175,0.3175 270 0,1 5.8483283,-1.6294354 L5.8483283,-1.3119354 8.1658283,-1.3119354 8.1658283,2.3119354 5.8483283,2.3119354 5.8483283,2.6294354 4.4516717,2.6294354 4.4516717,2.3119354 3.4516717,2.3119354 3.4516717,2.6294354 -1.5483283,2.6294354 -1.5483283,2.3119354 -3.6983283,2.3119354 -3.6983283,2.6294354 -4.6658283,2.6294354 -4.6658283,2.3119354 -5.6658283,2.3119354 -5.6658283,2.6294354 -6.1658283,2.6294354 -6.1658283,2.3119354 -7.1658283,2.3119354 -7.1658283,2.6294354 -8.1658283,2.6294354 -8.1658283,-1.3119354 -6.1658283,-1.3119354 -6.1658283,-1.6294354 -8.1658283,-1.6294354 A0.3175,0.3175 180 0,1 -8.089315,-1.8361518z" transform="matrix(1,0,0,-1,8.1658283,2.6294354)" fill="rgb(0,0,0)" stroke-linecap="round" stroke-linejoin="round" /><path d="M6.2580413,0.1324762 L6.2580413,0.1324762 6.2568439,0.0937928 6.2532528,0.0551465 6.2472715,0.0165742 6.2389057,-0.021887 6.2281634,-0.0602004 6.2150548,-0.0983292 6.1995927,-0.1362369 6.1817917,-0.1738872 6.1616689,-0.211244 6.1392437,-0.2482715 6.1145374,-0.2849343 6.0875737,-0.3211973 6.0583786,-0.3570257 6.0269798,-0.3923852 5.9934076,-0.4272419 5.9576941,-0.4615624 5.9198735,-0.4953139 5.879982,-0.528464 5.8380578,-0.560981 5.7941411,-0.5928337 5.748274,-0.6239916 5.7005003,-0.6544248 5.650866,-0.6841043 5.5994184,-0.7130015 5.546207,-0.7410889 5.4912826,-0.7683394 5.4346978,-0.794727 5.376507,-0.8202264 5.3167658,-0.8448132 5.2555314,-0.8684638 5.1928626,-0.8911556 5.1288193,-0.9128668 5.0634629,-0.9335766 4.996856,-0.9532653 4.9290624,-0.9719139 4.860147,-0.9895045 4.790176,-1.0060204 4.7192161,-1.0214457 4.6473356,-1.0357656 4.5746032,-1.0489664 4.5010886,-1.0610355 4.4268621,-1.0719613 4.351995,-1.0817333 4.276559,-1.0903422 4.2006262,-1.0977797 4.1242695,-1.1040388 4.0475619,-1.1091133 3.9705771,-1.1129985 3.8933886,-1.1156906 3.8160704,-1.117187 3.7386967,-1.1174864 3.6613415,-1.1165884 3.584079,-1.1144939 3.506983,-1.1112048 3.4301276,-1.1067244 3.3535863,-1.101057 3.2774324,-1.0942079 3.201739,-1.0861837 3.1265784,-1.0769921 3.0520227,-1.066642 2.9781433,-1.0551432 2.905011,-1.0425067 2.8326959,-1.0287447 2.7612672,-1.0138703 2.6907933,-0.9978978 2.6213418,-0.9808425 2.5529791,-0.9627207 2.4857708,-0.9435498 2.4197812,-0.9233481 2.3550736,-0.9021351 2.29171,-0.8799309 2.229751,-0.8567569 2.1692559,-0.8326353 2.1102829,-0.8075893 2.0528882,-0.7816426 1.997127,-0.7548204 1.9430526,-0.7271481 1.8907168,-0.6986524 1.8401698,-0.6693606 1.79146,-0.6393006 1.744634,-0.6085014 1.6997367,-0.5769923 1.6568111,-0.5448036 1.6158984,-0.5119661 1.5770376,-0.4785113 1.5402661,-0.4444713 1.5056191,-0.4098785 1.4731298,-0.3747662 1.4428292,-0.339168 1.4147464,-0.303118 1.3889084,-0.2666507 1.3653398,-0.2298011 1.3440632,-0.1926045 1.3250991,-0.1550964 1.3084655,-0.1173129 1.2941785,-0.0792901 1.2822516,-0.0410645 1.2726964,-0.0026726 1.265522,0.0358488 1.2607352,0.0744627 1.2583407,0.1131322 1.2583407,0.1518202 1.2607352,0.1904897 1.265522,0.2291036 1.2726964,0.267625 1.2822516,0.3060168 1.2941785,0.3442425 1.3084655,0.3822653 1.3250991,0.4200488 1.3440632,0.4575569 1.3653398,0.4947535 1.3889084,0.5316031 1.4147464,0.5680704 1.4428292,0.6041204 1.4731298,0.6397186 1.5056191,0.6748309 1.5402661,0.7094236 1.5770376,0.7434637 1.6158984,0.7769185 1.6568111,0.809756 1.6997367,0.8419447 1.744634,0.8734537 1.79146,0.904253 1.8401698,0.934313 1.8907168,0.9636048 1.9430526,0.9921005 1.997127,1.0197727 2.0528882,1.046595 2.1102829,1.0725416 2.1692559,1.0975877 2.229751,1.1217093 2.29171,1.1448833 2.3550736,1.1670874 2.4197812,1.1883005 2.4857708,1.2085022 2.5529791,1.2276731 2.6213418,1.2457949 2.6907933,1.2628502 2.7612672,1.2788227 2.8326959,1.2936971 2.905011,1.3074591 2.9781433,1.3200956 3.0520227,1.3315944 3.1265784,1.3419445 3.201739,1.3511361 3.2774324,1.3591602 3.3535863,1.3660093 3.4301276,1.3716768 3.506983,1.3761572 3.584079,1.3794462 3.6613415,1.3815407 3.7386967,1.3824388 3.8160704,1.3821394 3.8933886,1.380643 3.9705771,1.3779508 4.0475619,1.3740657 4.1242695,1.3689911 4.2006262,1.3627321 4.276559,1.3552946 4.351995,1.3466857 4.4268621,1.3369137 4.5010886,1.3259879 4.5746032,1.3139188 4.6473356,1.300718 4.7192161,1.2863981 4.790176,1.2709728 4.860147,1.2544569 4.9290624,1.2368662 4.996856,1.2182177 5.0634629,1.198529 5.1288193,1.1778191 5.1928626,1.1561079 5.2555314,1.1334161 5.3167658,1.1097655 5.376507,1.0851788 5.4346978,1.0596793 5.4912826,1.0332917 5.546207,1.0060412 5.5994184,0.9779539 5.650866,0.9490567 5.7005003,0.9193772 5.748274,0.888944 5.7941411,0.8577861 5.8380578,0.8259334 5.879982,0.7934164 5.9198735,0.7602663 5.9576941,0.7265148 5.9934076,0.6921943 6.0269798,0.6573376 6.0583786,0.6219781 6.0875737,0.5861497 6.1145374,0.5498867 6.1392437,0.5132239 6.1616689,0.4761963 6.1817917,0.4388395 6.1995927,0.4011892 6.2150548,0.3632815 6.2281634,0.3251527 6.2389057,0.2868394 6.2472715,0.2483782 6.2532528,0.2098059 6.2568439,0.1711596 6.2580413,0.1324762z" transform="matrix(1,0,0,-1,8.1658283,2.6294354)" fill="rgb(255,255,255)" stroke="rgb(0,0,0)" stroke-width="0.0010cm" stroke-linecap="round" stroke-linejoin="round" /><path d="M-7.1658283,0.1250005 L-7.3561152,0.1250005 -7.3561152,0.4425005 -7.1658283,0.4425005 -7.1658283,1.1870976 A0.5,0.5 180 0,0 -6.6658283,1.6870976 L-6.1658283,1.6870976 A0.5,0.5 90 0,0 -5.6658283,1.1870976 L-5.6658283,0.4425005 -5.4561152,0.4425005 -5.4561152,0.1250005 -5.6658283,0.1250005 -5.6658283,-0.3129024 A0.5,0.5 0 0,0 -6.1658283,-0.8129024 L-6.6658283,-0.8129024 A0.5,0.5 270 0,0 -7.1658283,-0.3129024 L-7.1658283,0.1250005z" transform="matrix(1,0,0,-1,8.1658283,2.6294354)" fill="rgb(255,255,255)" stroke="rgb(0,0,0)" stroke-width="0.0010cm" stroke-linecap="round" stroke-linejoin="round" /><path d="M-3.9483283,0.1250005 L-4.1386152,0.1250005 -4.1386152,0.4425005 -3.9483283,0.4425005 -3.9483283,1.1870976 A0.5,0.5 180 0,0 -3.4483283,1.6870976 L-2.4483283,1.6870976 A0.5,0.5 90 0,0 -1.9483283,1.1870976 L-1.9483283,0.4425005 -1.7386152,0.4425005 -1.7386152,0.1250005 -1.9483283,0.1250005 -1.9483283,-0.3129024 A0.5,0.5 0 0,0 -2.4483283,-0.8129024 L-3.4483283,-0.8129024 A0.5,0.5 270 0,0 -3.9483283,-0.3129024 L-3.9483283,0.1250005z" transform="matrix(1,0,0,-1,8.1658283,2.6294354)" fill="rgb(255,255,255)" stroke="rgb(0,0,0)" stroke-width="0.0010cm" stroke-linecap="round" stroke-linejoin="round" /><path d="M-2.1983283,-1.6294354 L-3.6983283,-1.6294354 -3.6983283,-1.3119354 -2.1983283,-1.3119354 -2.1983283,-1.6294354z" transform="matrix(1,0,0,-1,8.1658283,2.6294354)" fill="rgb(255,255,255)" stroke="rgb(0,0,0)" stroke-width="0.0010cm" stroke-linecap="round" stroke-linejoin="round" /><path d="M-4.6658283,0.4370976 L-4.6658283,1.9370976 -4.3483283,1.9370976 -4.3483283,0.4370976 -4.6658283,0.4370976z" transform="matrix(1,0,0,-1,8.1658283,2.6294354)" fill="rgb(255,255,255)" stroke="rgb(0,0,0)" stroke-width="0.0010cm" stroke-linecap="round" stroke-linejoin="round" /><path d="M-1.2308283,0.4370976 L-1.5483283,0.4370976 -1.5483283,1.9370976 -1.2308283,1.9370976 -1.2308283,0.4370976z" transform="matrix(1,0,0,-1,8.1658283,2.6294354)" fill="rgb(255,255,255)" stroke="rgb(0,0,0)" stroke-width="0.0010cm" stroke-linecap="round" stroke-linejoin="round" /><path d="M-1.2308283,0.1195976 L-1.2308283,-0.8804024 -1.5483283,-0.8804024 -1.5483283,0.1195976 -1.2308283,0.1195976z" transform="matrix(1,0,0,-1,8.1658283,2.6294354)" fill="rgb(255,255,255)" stroke="rgb(0,0,0)" stroke-width="0.0010cm" stroke-linecap="round" stroke-linejoin="round" /><path d="M-4.6658283,0.1195976 L-4.3483283,0.1195976 -4.3483283,-0.8804024 -4.6658283,-0.8804024 -4.6658283,0.1195976z" transform="matrix(1,0,0,-1,8.1658283,2.6294354)" fill="rgb(255,255,255)" stroke="rgb(0,0,0)" stroke-width="0.0010cm" stroke-linecap="round" stroke-linejoin="round" /><path d="M3.4516717,-1.6294354 L3.4516717,-1.3119354 4.4516717,-1.3119354 4.4516717,-1.6294354 3.4516717,-1.6294354z" transform="matrix(1,0,0,-1,8.1658283,2.6294354)" fill="rgb(255,255,255)" stroke="rgb(0,0,0)" stroke-width="0.0010cm" stroke-linecap="round" stroke-linejoin="round" /></svg>