<?xml version="1.0" encoding="utf-8"?>
<!-- Generator: Fusion 360, Shaper Origin Export Add-In, Version 1.7.0  -->
<svg xmlns="http://www.w3.org/2000/svg" xmlns:xlink="http://www.w3.org/1999/xlink" xmlns:shaper="http://www.shapertools.com/namespaces/shaper" shaper:fusionaddin="version:1.7.0" width="6.7642737cm" height="5.9320783cm" version="1.1" x="0cm" y="0cm" viewBox="0 0 6.7642737 5.9320783" enable-background="new 0 0 6.7642737 5.9320783" xml:space="preserve"><path d="M-0.5592339,2.1922702 L-0.8767339,2.1922702 A0.6,0.6 348.0954715 0,0 -1.4638296,1.7160391 L-3.0646369,1.7160391 -3.0646369,1.4660391 -3.3821369,1.4660391 -3.3821369,0.9660391 -3.0646369,0.9660391 -3.0646369,0.7160391 -1.4638296,0.7160391 A0.6,0.6 90 0,0 -0.8767339,0.239808 L-0.5592339,0.239808 -0.5592339,-0.8514609 -0.5342339,-0.8514609 -0.5342339,-0.8764609 -0.5592339,-0.8764609 -0.5592339,-2.075 A0.8910391,0.8910391 180 0,1 1.2228443,-2.075 L1.2228443,-0.5339609 2.2228443,-0.5339609 2.2228443,-0.8514609 3.0646369,-0.8514609 3.0646369,0.2397702 3.3821369,0.2397702 3.3821369,2.192308 3.0646369,2.192308 3.0646369,2.9660391 -0.5592339,2.9660391 -0.5592339,2.1922702z" transform="matrix(1,0,0,-1,3.3821369,2.9660391)" fill="rgb(0,0,0)" stroke-linecap="round" stroke-linejoin="round" /><path d="M0.0818052,-2.075 a0.25,0.25 0 1,1 0.5,0 a0.25,0.25 0 1,1 -0.5,0z" transform="matrix(1,0,0,-1,3.3821369,2.9660391)" fill="rgb(255,255,255)" stroke="rgb(0,0,0)" stroke-width="0.0010cm" stroke-linecap="round" stroke-linejoin="round" /><path d="M-2.2246661,1.2160391 a0.25,0.25 0 1,1 0.5,0 a0.25,0.25 0 1,1 -0.5,0z" transform="matrix(1,0,0,-1,3.3821369,2.9660391)" fill="rgb(255,255,255)" stroke="rgb(0,0,0)" stroke-width="0.0010cm" stroke-linecap="round" stroke-linejoin="round" /><path d="M3.0646369,1.2059482 A1.4369447,1.4369447 359.7988198 1,0 3.0646369,1.2160391 L3.0646369,1.2059482z" transform="matrix(1,0,0,-1,3.3821369,2.9660391)" fill="rgb(255,255,255)" stroke="rgb(0,0,0)" stroke-width="0.0010cm" stroke-linecap="round" stroke-linejoin="round" /></svg>