<?xml version="1.0" encoding="utf-8"?>
<!-- Generator: Fusion 360, Shaper Origin Export Add-In, Version 1.7.0  -->
<svg xmlns="http://www.w3.org/2000/svg" xmlns:xlink="http://www.w3.org/1999/xlink" xmlns:shaper="http://www.shapertools.com/namespaces/shaper" shaper:fusionaddin="version:1.7.0" width="3.5cm" height="3.5cm" version="1.1" x="0cm" y="0cm" viewBox="0 0 3.5 3.5" enable-background="new 0 0 3.5 3.5" xml:space="preserve"><path d="M1.08,1.55 A0.2,0.2 0 0,1 0.88,1.75 L0.0975,1.75 A0.45,0.45 90 0,1 -0.3525,1.3 L-0.3525,-1.3 A0.45,0.45 180 0,1 0.0975,-1.75 L2.7475,-1.75 A0.4527693,0.4527693 276.3401917 0,1 3.1475,-1.35 L3.1475,1.3 A0.45,0.45 0 0,1 2.6975,1.75 L1.5975,1.75 A0.2,0.2 90 0,1 1.3975,1.55 L1.3975,1.2641 1.08,1.2641 1.08,1.55z" transform="matrix(1,0,0,-1,0.3525,1.75)" fill="rgb(0,0,0)" stroke-linecap="round" stroke-linejoin="round" /><path d="M0.3525,-0 a1.045,1.045 0 1,1 2.09,0 a1.045,1.045 0 1,1 -2.09,0z" transform="matrix(1,0,0,-1,0.3525,1.75)" fill="rgb(255,255,255)" stroke="rgb(0,0,0)" stroke-width="0.0010cm" stroke-linecap="round" stroke-linejoin="round" /><path d="M2.5475,-1.3 a0.15,0.15 0 1,1 0.3,0 a0.15,0.15 0 1,1 -0.3,0z" transform="matrix(1,0,0,-1,0.3525,1.75)" fill="rgb(255,255,255)" stroke="rgb(0,0,0)" stroke-width="0.0010cm" stroke-linecap="round" stroke-linejoin="round" /><path d="M-0.0525,-1.3 a0.15,0.15 0 1,1 0.3,0 a0.15,0.15 0 1,1 -0.3,0z" transform="matrix(1,0,0,-1,0.3525,1.75)" fill="rgb(255,255,255)" stroke="rgb(0,0,0)" stroke-width="0.0010cm" stroke-linecap="round" stroke-linejoin="round" /><path d="M2.5475,1.3 a0.15,0.15 0 1,1 0.3,0 a0.15,0.15 0 1,1 -0.3,0z" transform="matrix(1,0,0,-1,0.3525,1.75)" fill="rgb(255,255,255)" stroke="rgb(0,0,0)" stroke-width="0.0010cm" stroke-linecap="round" stroke-linejoin="round" /><path d="M-0.0525,1.3 a0.15,0.15 0 1,1 0.3,0 a0.15,0.15 0 1,1 -0.3,0z" transform="matrix(1,0,0,-1,0.3525,1.75)" fill="rgb(255,255,255)" stroke="rgb(0,0,0)" stroke-width="0.0010cm" stroke-linecap="round" stroke-linejoin="round" /></svg>