<?xml version="1.0" encoding="utf-8"?>
<!-- Generator: Fusion 360, Shaper Origin Export Add-In, Version 1.7.0  -->
<svg xmlns="http://www.w3.org/2000/svg" xmlns:xlink="http://www.w3.org/1999/xlink" xmlns:shaper="http://www.shapertools.com/namespaces/shaper" shaper:fusionaddin="version:1.7.0" width="1.7458066cm" height="2.7654924cm" version="1.1" x="0cm" y="0cm" viewBox="0 0 1.7458066 2.7654924" enable-background="new 0 0 1.7458066 2.7654924" xml:space="preserve"><path d="M0.5394697,1.4671619 A0.35,0.35 22.9746477 0,1 0.5105082,1.5215705 A0.35,0.35 84.7490693 0,1 0.131426,1.1277007 A1.05,1.05 7.4429414 0,0 -0.0350058,0.4108556 A0.95,0.95 146.4151821 0,1 0.5522153,-1.0424525 L0.5522153,-1.092453 A0.15,0.15 179.999961 0,1 0.7022153,-1.2424531 L1.4022152,-1.2424531 A0.15,0.15 270 0,1 1.5522152,-1.0924531 A0.25,0.25 0 0,1 1.3022152,-0.8424531 L0.9840207,-0.8424531 A0.7969145,0.7969145 249.1148118 0,0 0.7756414,0.5286312 A1.572953,1.572953 240.4156482 0,1 1.2924072,0.3451699 A0.25,0.25 285.2518266 0,1 1.2869331,0.8289856 A1.1,1.1 256.0446601 0,0 0.5394697,1.4671619z" transform="matrix(1,0,0,-1,0.1935914,1.5230393)" fill="rgb(0,0,0)" stroke-linecap="round" stroke-linejoin="round" /><path d="M1.2027502,-1.0588786 a0.125,0.125 0 1,1 0.25,0 a0.125,0.125 0 1,1 -0.25,0z" transform="matrix(1,0,0,-1,0.1935914,1.5230393)" fill="rgb(255,255,255)" stroke="rgb(0,0,0)" stroke-width="0.0010cm" stroke-linecap="round" stroke-linejoin="round" /><path d="M0.3280177,1.1737806 a0.1,0.1 0 1,1 0.2,0 a0.1,0.1 0 1,1 -0.2,0z" transform="matrix(1,0,0,-1,0.1935914,1.5230393)" fill="rgb(255,255,255)" stroke="rgb(0,0,0)" stroke-width="0.0010cm" stroke-linecap="round" stroke-linejoin="round" /><path d="M0.635889,-1.0588786 a0.125,0.125 0 1,1 0.25,0 a0.125,0.125 0 1,1 -0.25,0z" transform="matrix(1,0,0,-1,0.1935914,1.5230393)" fill="rgb(255,255,255)" stroke="rgb(0,0,0)" stroke-width="0.0010cm" stroke-linecap="round" stroke-linejoin="round" /><path d="M1.0766417,0.5863646 a0.15,0.15 0 1,1 0.3,0 a0.15,0.15 0 1,1 -0.3,0z" transform="matrix(1,0,0,-1,0.1935914,1.5230393)" fill="rgb(255,255,255)" stroke="rgb(0,0,0)" stroke-width="0.0010cm" stroke-linecap="round" stroke-linejoin="round" /><path d="M0.7316903,0.7709012 a0.1,0.1 0 1,1 0.2,0 a0.1,0.1 0 1,1 -0.2,0z" transform="matrix(1,0,0,-1,0.1935914,1.5230393)" fill="rgb(255,255,255)" stroke="rgb(0,0,0)" stroke-width="0.0010cm" stroke-linecap="round" stroke-linejoin="round" /></svg>