<?xml version="1.0" encoding="utf-8"?>
<!-- Generator: Fusion 360, Shaper Origin Export Add-In, Version 1.7.0  -->
<svg xmlns="http://www.w3.org/2000/svg" xmlns:xlink="http://www.w3.org/1999/xlink" xmlns:shaper="http://www.shapertools.com/namespaces/shaper" shaper:fusionaddin="version:1.7.0" width="19.8316565cm" height="6.0575833cm" version="1.1" x="0cm" y="0cm" viewBox="0 0 19.8316565 6.0575833" enable-background="new 0 0 19.8316565 6.0575833" xml:space="preserve"><path d="M-9.5983283,-4.5675577 A0.3175,0.3175 90 0,1 -9.9158283,-4.8850577 L-9.9158283,-5.2025577 -8.5760878,-5.2025577 -8.5760878,-4.8850577 -7.7555687,-4.8850577 -7.7555687,-5.2025577 -5.5852293,-5.2025577 -5.5852293,-4.8850577 A0.5,0.5 279.1029382 0,1 -5.215595,-4.1708241 A3.6053892,3.6053892 206.1715739 0,0 -5.2374876,-1.035778 A0.5,0.5 154.6286245 0,0 -4.7857128,-0.7500199 L-4.0983283,-0.7500199 -4.0983283,-0.4325199 -2.7016717,-0.4325199 -2.7016717,-0.7500199 -1.7016717,-0.7500199 -1.7016717,-0.4325199 3.9483283,-0.4325199 3.9483283,-0.7500199 5.4483283,-0.7500199 5.4483283,-0.4325199 7.9158283,-0.4325199 7.9158283,-4.3901032 A0.5,0.5 180 0,1 8.4158283,-4.8901032 L8.4158283,-5.1401032 A0.25,0.25 180 0,1 8.6658283,-5.3901032 L9.1658283,-5.3901032 A0.25,0.25 270 0,1 9.4158283,-5.1401032 L9.4158283,-4.8901032 A0.5,0.5 270 0,1 9.9158283,-4.3901032 L9.9158283,0.6674801 -6.1008865,0.6674801 A1.955734,1.955734 2.9309085 0,0 -6.4158283,-0.5007356 L-6.4158283,-2.3175577 A2.25,2.25 0 0,0 -8.6658283,-4.5675577 L-9.5983283,-4.5675577z" transform="matrix(1,0,0,-1,9.9158283,0.6674801)" fill="rgb(0,0,0)" stroke-linecap="round" stroke-linejoin="round" /><path d="M1.5381299,0.094973 a0.15,0.15 0 1,1 0.3,0 a0.15,0.15 0 1,1 -0.3,0z" transform="matrix(1,0,0,-1,9.9158283,0.6674801)" fill="rgb(255,255,255)" stroke="rgb(0,0,0)" stroke-width="0.0010cm" stroke-linecap="round" stroke-linejoin="round" /><path d="M8.7658283,-5.1401032 a0.15,0.15 0 1,1 0.3,0 a0.15,0.15 0 1,1 -0.3,0z" transform="matrix(1,0,0,-1,9.9158283,0.6674801)" fill="rgb(255,255,255)" stroke="rgb(0,0,0)" stroke-width="0.0010cm" stroke-linecap="round" stroke-linejoin="round" /><path d="M9.2061152,0.1124157 a0.15,0.15 0 1,1 0.3,0 a0.15,0.15 0 1,1 -0.3,0z" transform="matrix(1,0,0,-1,9.9158283,0.6674801)" fill="rgb(255,255,255)" stroke="rgb(0,0,0)" stroke-width="0.0010cm" stroke-linecap="round" stroke-linejoin="round" /><path d="M8.4158283,-3.5726032 L9.4158283,-3.5726032 9.4158283,-3.8901032 8.4158283,-3.8901032 8.4158283,-3.5726032z" transform="matrix(1,0,0,-1,9.9158283,0.6674801)" fill="rgb(255,255,255)" stroke="rgb(0,0,0)" stroke-width="0.0010cm" stroke-linecap="round" stroke-linejoin="round" /><path d="M8.2330783,-4.5125199 a0.15875,0.15875 0 1,1 0.3175,0 a0.15875,0.15875 0 1,1 -0.3175,0z" transform="matrix(1,0,0,-1,9.9158283,0.6674801)" fill="rgb(255,255,255)" stroke="rgb(0,0,0)" stroke-width="0.0010cm" stroke-linecap="round" stroke-linejoin="round" /><path d="M8.3600783,0.3134801 a0.15875,0.15875 0 1,1 0.3175,0 a0.15875,0.15875 0 1,1 -0.3175,0z" transform="matrix(1,0,0,-1,9.9158283,0.6674801)" fill="rgb(255,255,255)" stroke="rgb(0,0,0)" stroke-width="0.0010cm" stroke-linecap="round" stroke-linejoin="round" /><path d="M3.1530783,-0.1945199 a0.15875,0.15875 0 1,1 0.3175,0 a0.15875,0.15875 0 1,1 -0.3175,0z" transform="matrix(1,0,0,-1,9.9158283,0.6674801)" fill="rgb(255,255,255)" stroke="rgb(0,0,0)" stroke-width="0.0010cm" stroke-linecap="round" stroke-linejoin="round" /><path d="M-6.0983283,-2.1587888 L-5.7808283,-2.1587888 -5.7808283,-4.1113266 -6.0983283,-4.1113266 -6.0983283,-2.1587888z" transform="matrix(1,0,0,-1,9.9158283,0.6674801)" fill="rgb(255,255,255)" stroke="rgb(0,0,0)" stroke-width="0.0010cm" stroke-linecap="round" stroke-linejoin="round" /></svg>