<?xml version="1.0" encoding="utf-8"?>
<!-- Generator: Fusion 360, Shaper Origin Export Add-In, Version 1.7.0  -->
<svg xmlns="http://www.w3.org/2000/svg" xmlns:xlink="http://www.w3.org/1999/xlink" xmlns:shaper="http://www.shapertools.com/namespaces/shaper" shaper:fusionaddin="version:1.7.0" width="5.1025378cm" height="4.8948757cm" version="1.1" x="0cm" y="0cm" viewBox="0 0 5.1025378 4.8948757" enable-background="new 0 0 5.1025378 4.8948757" xml:space="preserve"><path d="M0.2378899,0.0529096 L1.1904277,0.0529096 1.1904277,1.0529096 0.8729277,1.0529096 0.8729277,1.8019426 A0.6360049,0.6360049 0 0,1 -0.2128005,2.2516659 L-0.6615568,1.8029096 -1.0185353,1.8029096 -1.0185353,2.1029096 A0.25,0.25 0 0,1 -1.2685353,2.3529096 L-1.7685353,2.3529096 A0.25,0.25 90 0,1 -2.0185353,2.1029096 L-2.0185353,1.8029096 -2.7621101,1.8029096 A0.4527693,0.4527693 83.6598083 0,1 -3.2621101,1.3029096 L-3.2621101,0.5529096 -3.5871101,0.5529096 A0.325,0.325 90 0,1 -3.9121101,0.2279096 L-3.9121101,-2.1395754 A0.3175,0.3175 180 0,1 -3.6054477,-2.4568904 A0.3,0.3 269.0901121 0,1 -3.6006838,-2.4569282 L-3.2621101,-2.4569282 -3.2621101,-2.1394282 0.2378899,-2.1394282 0.2378899,-2.4569282 0.8729277,-2.4569282 0.8729277,-1.7645904 1.1904277,-1.7645904 1.1904277,-0.2645904 0.2378899,-0.2645904 0.2378899,0.0529096z" transform="matrix(1,0,0,-1,3.9121101,2.4379474)" fill="rgb(0,0,0)" stroke-linecap="round" stroke-linejoin="round" /><path d="M-3.7371101,0.2279096 a0.15,0.15 0 1,1 0.3,0 a0.15,0.15 0 1,1 -0.3,0z" transform="matrix(1,0,0,-1,3.9121101,2.4379474)" fill="rgb(255,255,255)" stroke="rgb(0,0,0)" stroke-width="0.0010cm" stroke-linecap="round" stroke-linejoin="round" /><path d="M-3.7371101,-1.2720904 a0.15,0.15 0 1,1 0.3,0 a0.15,0.15 0 1,1 -0.3,0z" transform="matrix(1,0,0,-1,3.9121101,2.4379474)" fill="rgb(255,255,255)" stroke="rgb(0,0,0)" stroke-width="0.0010cm" stroke-linecap="round" stroke-linejoin="round" /><path d="M0.2617229,-1.8209234 a0.1,0.1 0 1,1 0.2,0 a0.1,0.1 0 1,1 -0.2,0z" transform="matrix(1,0,0,-1,3.9121101,2.4379474)" fill="rgb(255,255,255)" stroke="rgb(0,0,0)" stroke-width="0.0010cm" stroke-linecap="round" stroke-linejoin="round" /><path d="M-1.6935353,2.0279096 a0.175,0.175 0 1,1 0.35,0 a0.175,0.175 0 1,1 -0.35,0z" transform="matrix(1,0,0,-1,3.9121101,2.4379474)" fill="rgb(255,255,255)" stroke="rgb(0,0,0)" stroke-width="0.0010cm" stroke-linecap="round" stroke-linejoin="round" /><path d="M0.5297253,1.3529096 a0.15,0.15 0 1,1 0.3,0 a0.15,0.15 0 1,1 -0.3,0z" transform="matrix(1,0,0,-1,3.9121101,2.4379474)" fill="rgb(255,255,255)" stroke="rgb(0,0,0)" stroke-width="0.0010cm" stroke-linecap="round" stroke-linejoin="round" /><path d="M0.5297253,-1.2470904 a0.15,0.15 0 1,1 0.3,0 a0.15,0.15 0 1,1 -0.3,0z" transform="matrix(1,0,0,-1,3.9121101,2.4379474)" fill="rgb(255,255,255)" stroke="rgb(0,0,0)" stroke-width="0.0010cm" stroke-linecap="round" stroke-linejoin="round" /><path d="M-2.7871101,0.0529096 a1.275,1.275 0 1,1 2.55,0 a1.275,1.275 0 1,1 -2.55,0z" transform="matrix(1,0,0,-1,3.9121101,2.4379474)" fill="rgb(255,255,255)" stroke="rgb(0,0,0)" stroke-width="0.0010cm" stroke-linecap="round" stroke-linejoin="round" /><path d="M-2.9621101,1.3529096 a0.15,0.15 0 1,1 0.3,0 a0.15,0.15 0 1,1 -0.3,0z" transform="matrix(1,0,0,-1,3.9121101,2.4379474)" fill="rgb(255,255,255)" stroke="rgb(0,0,0)" stroke-width="0.0010cm" stroke-linecap="round" stroke-linejoin="round" /><path d="M-0.3621101,-1.2470904 a0.15,0.15 0 1,1 0.3,0 a0.15,0.15 0 1,1 -0.3,0z" transform="matrix(1,0,0,-1,3.9121101,2.4379474)" fill="rgb(255,255,255)" stroke="rgb(0,0,0)" stroke-width="0.0010cm" stroke-linecap="round" stroke-linejoin="round" /><path d="M-0.3621101,1.3529096 a0.15,0.15 0 1,1 0.3,0 a0.15,0.15 0 1,1 -0.3,0z" transform="matrix(1,0,0,-1,3.9121101,2.4379474)" fill="rgb(255,255,255)" stroke="rgb(0,0,0)" stroke-width="0.0010cm" stroke-linecap="round" stroke-linejoin="round" /><path d="M-2.9621101,-1.2470904 a0.15,0.15 0 1,1 0.3,0 a0.15,0.15 0 1,1 -0.3,0z" transform="matrix(1,0,0,-1,3.9121101,2.4379474)" fill="rgb(255,255,255)" stroke="rgb(0,0,0)" stroke-width="0.0010cm" stroke-linecap="round" stroke-linejoin="round" /><path d="M0.2617229,1.9267426 a0.1,0.1 0 1,1 0.2,0 a0.1,0.1 0 1,1 -0.2,0z" transform="matrix(1,0,0,-1,3.9121101,2.4379474)" fill="rgb(255,255,255)" stroke="rgb(0,0,0)" stroke-width="0.0010cm" stroke-linecap="round" stroke-linejoin="round" /><path d="M-0.0871101,1.6029096 a0.125,0.125 0 1,1 0.25,0 a0.125,0.125 0 1,1 -0.25,0z" transform="matrix(1,0,0,-1,3.9121101,2.4379474)" fill="rgb(255,255,255)" stroke="rgb(0,0,0)" stroke-width="0.0010cm" stroke-linecap="round" stroke-linejoin="round" /><path d="M-0.0871101,-1.4970904 a0.125,0.125 0 1,1 0.25,0 a0.125,0.125 0 1,1 -0.25,0z" transform="matrix(1,0,0,-1,3.9121101,2.4379474)" fill="rgb(255,255,255)" stroke="rgb(0,0,0)" stroke-width="0.0010cm" stroke-linecap="round" stroke-linejoin="round" /></svg>