<?xml version="1.0" encoding="utf-8"?>
<!-- Generator: Fusion 360, Shaper Origin Export Add-In, Version 1.7.0  -->
<svg xmlns="http://www.w3.org/2000/svg" xmlns:xlink="http://www.w3.org/1999/xlink" xmlns:shaper="http://www.shapertools.com/namespaces/shaper" shaper:fusionaddin="version:1.7.0" width="19.8316565cm" height="6.0525202cm" version="1.1" x="0cm" y="0cm" viewBox="0 0 19.8316565 6.0525202" enable-background="new 0 0 19.8316565 6.0525202" xml:space="preserve"><path d="M9.9158283,4.7525 L9.1658283,5.5025 6.4158283,5.5025 6.4158283,5.0025 6.0983283,5.0025 6.0983283,5.32 3.2983283,5.32 3.2983283,5.0025 2.9808283,5.0025 2.9808283,5.32 A0.3175,0.3175 90 0,1 2.6633283,5.0025 L2.6633283,1.5025 A0.3175,0.3175 180 0,1 2.9808283,1.185 L2.9808283,1.5025 3.2983283,1.5025 3.2983283,0.55 -1.7016717,0.55 -1.7016717,0.8675 -2.7016717,0.8675 -2.7016717,0.55 -4.0983283,0.55 -4.0983283,0.8675 A9.0492689,9.0492689 207.1902888 0,0 -5.0859151,4.5287178 A0.5,0.5 3.0013812 0,1 -5.5852293,5.0025378 L-5.5852293,5.32 -6.7555687,5.32 -6.7555687,5.0025378 -8.5760878,5.0025378 -8.5760878,5.32 -9.9158283,5.32 -9.9158283,3.2525378 A3.802558,3.802558 180 0,1 -6.1008865,-0.55 L9.9158283,-0.55 9.9158283,0.5499622 8.9158283,0.5499622 8.9158283,0.8674622 9.9158283,0.8674622 9.9158283,4.7525z" transform="matrix(1,0,0,-1,9.9158283,5.5025)" fill="rgb(0,0,0)" stroke-linecap="round" stroke-linejoin="round" /><path d="M-6.2555687,1.1850378 L-8.7555687,1.1850378 -8.7555687,1.5025378 -6.2555687,1.5025378 -6.2555687,1.1850378z" transform="matrix(1,0,0,-1,9.9158283,5.5025)" fill="rgb(255,255,255)" stroke="rgb(0,0,0)" stroke-width="0.0010cm" stroke-linecap="round" stroke-linejoin="round" /><path d="M1.5478429,0.0174238 a0.15,0.15 0 1,1 0.3,0 a0.15,0.15 0 1,1 -0.3,0z" transform="matrix(1,0,0,-1,9.9158283,5.5025)" fill="rgb(255,255,255)" stroke="rgb(0,0,0)" stroke-width="0.0010cm" stroke-linecap="round" stroke-linejoin="round" /><path d="M8.7658283,5.2525 a0.15,0.15 0 1,1 0.3,0 a0.15,0.15 0 1,1 -0.3,0z" transform="matrix(1,0,0,-1,9.9158283,5.5025)" fill="rgb(255,255,255)" stroke="rgb(0,0,0)" stroke-width="0.0010cm" stroke-linecap="round" stroke-linejoin="round" /><path d="M6.8908283,3.2525 a1.275,1.275 0 1,1 2.55,0 a1.275,1.275 0 1,1 -2.55,0z" transform="matrix(1,0,0,-1,9.9158283,5.5025)" fill="rgb(255,255,255)" stroke="rgb(0,0,0)" stroke-width="0.0010cm" stroke-linecap="round" stroke-linejoin="round" /><path d="M7.4158283,0.55 L7.4158283,0.8675 7.9158283,0.8675 7.9158283,0.55 7.4158283,0.55z" transform="matrix(1,0,0,-1,9.9158283,5.5025)" fill="rgb(255,255,255)" stroke="rgb(0,0,0)" stroke-width="0.0010cm" stroke-linecap="round" stroke-linejoin="round" /><path d="M6.7158283,1.9525 a0.15,0.15 0 1,1 0.3,0 a0.15,0.15 0 1,1 -0.3,0z" transform="matrix(1,0,0,-1,9.9158283,5.5025)" fill="rgb(255,255,255)" stroke="rgb(0,0,0)" stroke-width="0.0010cm" stroke-linecap="round" stroke-linejoin="round" /><path d="M9.3158283,1.9525 a0.15,0.15 0 1,1 0.3,0 a0.15,0.15 0 1,1 -0.3,0z" transform="matrix(1,0,0,-1,9.9158283,5.5025)" fill="rgb(255,255,255)" stroke="rgb(0,0,0)" stroke-width="0.0010cm" stroke-linecap="round" stroke-linejoin="round" /><path d="M6.7158283,4.5525 a0.15,0.15 0 1,1 0.3,0 a0.15,0.15 0 1,1 -0.3,0z" transform="matrix(1,0,0,-1,9.9158283,5.5025)" fill="rgb(255,255,255)" stroke="rgb(0,0,0)" stroke-width="0.0010cm" stroke-linecap="round" stroke-linejoin="round" /><path d="M9.3158283,4.5525 a0.15,0.15 0 1,1 0.3,0 a0.15,0.15 0 1,1 -0.3,0z" transform="matrix(1,0,0,-1,9.9158283,5.5025)" fill="rgb(255,255,255)" stroke="rgb(0,0,0)" stroke-width="0.0010cm" stroke-linecap="round" stroke-linejoin="round" /><path d="M6.4158283,1.5025 L6.4158283,0.55 5.4483283,0.55 5.4483283,0.8675 6.0983283,0.8675 6.0983283,1.5025 6.4158283,1.5025z" transform="matrix(1,0,0,-1,9.9158283,5.5025)" fill="rgb(255,255,255)" stroke="rgb(0,0,0)" stroke-width="0.0010cm" stroke-linecap="round" stroke-linejoin="round" /><path d="M-6.0983283,2.2762689 L-6.0983283,4.2287311 -5.7808283,4.2287311 -5.7808283,2.2762689 -6.0983283,2.2762689z" transform="matrix(1,0,0,-1,9.9158283,5.5025)" fill="rgb(255,255,255)" stroke="rgb(0,0,0)" stroke-width="0.0010cm" stroke-linecap="round" stroke-linejoin="round" /><path d="M-9.2658283,3.2525378 a1.1,1.1 0 1,1 2.2,0 a1.1,1.1 0 1,1 -2.2,0z" transform="matrix(1,0,0,-1,9.9158283,5.5025)" fill="rgb(255,255,255)" stroke="rgb(0,0,0)" stroke-width="0.0010cm" stroke-linecap="round" stroke-linejoin="round" /><path d="M-7.2198127,4.3485155 a0.15,0.15 0 1,1 0.3,0 a0.15,0.15 0 1,1 -0.3,0z" transform="matrix(1,0,0,-1,9.9158283,5.5025)" fill="rgb(255,255,255)" stroke="rgb(0,0,0)" stroke-width="0.0010cm" stroke-linecap="round" stroke-linejoin="round" /><path d="M-7.2198127,2.1564845 a0.15,0.15 0 1,1 0.3,0 a0.15,0.15 0 1,1 -0.3,0z" transform="matrix(1,0,0,-1,9.9158283,5.5025)" fill="rgb(255,255,255)" stroke="rgb(0,0,0)" stroke-width="0.0010cm" stroke-linecap="round" stroke-linejoin="round" /><path d="M-9.4118438,4.3485155 a0.15,0.15 0 1,1 0.3,0 a0.15,0.15 0 1,1 -0.3,0z" transform="matrix(1,0,0,-1,9.9158283,5.5025)" fill="rgb(255,255,255)" stroke="rgb(0,0,0)" stroke-width="0.0010cm" stroke-linecap="round" stroke-linejoin="round" /><path d="M5.7483283,3.2349569 a0.1,0.1 0 1,1 0.2,0 a0.1,0.1 0 1,1 -0.2,0z" transform="matrix(1,0,0,-1,9.9158283,5.5025)" fill="rgb(255,255,255)" stroke="rgb(0,0,0)" stroke-width="0.0010cm" stroke-linecap="round" stroke-linejoin="round" /><path d="M9.2158283,-0.0000189 a0.15,0.15 0 1,1 0.3,0 a0.15,0.15 0 1,1 -0.3,0z" transform="matrix(1,0,0,-1,9.9158283,5.5025)" fill="rgb(255,255,255)" stroke="rgb(0,0,0)" stroke-width="0.0010cm" stroke-linecap="round" stroke-linejoin="round" /><path d="M6.5833283,1.185 a0.15,0.15 0 1,1 0.3,0 a0.15,0.15 0 1,1 -0.3,0z" transform="matrix(1,0,0,-1,9.9158283,5.5025)" fill="rgb(255,255,255)" stroke="rgb(0,0,0)" stroke-width="0.0010cm" stroke-linecap="round" stroke-linejoin="round" /></svg>