<?xml version="1.0" encoding="utf-8"?>
<!-- Generator: Fusion 360, Shaper Origin Export Add-In, Version 1.7.0  -->
<svg xmlns="http://www.w3.org/2000/svg" xmlns:xlink="http://www.w3.org/1999/xlink" xmlns:shaper="http://www.shapertools.com/namespaces/shaper" shaper:fusionaddin="version:1.7.0" width="4.8938708cm" height="4.330599cm" version="1.1" x="0cm" y="0cm" viewBox="0 0 4.8938708 4.330599" enable-background="new 0 0 4.8938708 4.330599" xml:space="preserve"><path d="M-2.1294354,1.2716551 A0.3175,0.3175 90 0,1 -2.4469354,0.9541551 L-2.4469354,-0.1235562 A0.3175,0.3175 180 0,1 -2.1294354,-0.4410562 L-2.1294354,0.0050399 -1.8119354,0.0050399 -1.8119354,-1.6522005 -0.0298571,-1.6522005 -0.0298571,-1.9697005 -1.8119354,-1.9697005 -1.8119354,-2.1652995 1.8119354,-2.1652995 1.8119354,-1.9697005 0.9701429,-1.9697005 0.9701429,-1.6522005 1.8119354,-1.6522005 1.8119354,0.0050399 2.1294354,0.0050399 2.1294354,-0.4410562 A0.3175,0.3175 270 0,1 2.4469354,-0.1235562 L2.4469354,0.9541551 A0.3175,0.3175 0 0,1 2.1294354,1.2716551 L2.1294354,0.8255591 1.8119354,0.8255591 1.8119354,2.1652995 -1.8119354,2.1652995 -1.8119354,0.8255591 -2.1294354,0.8255591 -2.1294354,1.2716551z" transform="matrix(1,0,0,-1,2.4469354,2.1652995)" fill="rgb(0,0,0)" stroke-linecap="round" stroke-linejoin="round" /></svg>