<?xml version="1.0" encoding="utf-8"?>
<!-- Generator: Fusion 360, Shaper Origin Export Add-In, Version 1.7.0  -->
<svg xmlns="http://www.w3.org/2000/svg" xmlns:xlink="http://www.w3.org/1999/xlink" xmlns:shaper="http://www.shapertools.com/namespaces/shaper" shaper:fusionaddin="version:1.7.0" width="7.4835285cm" height="7.3992737cm" version="1.1" x="0cm" y="0cm" viewBox="0 0 7.4835285 7.3992737" enable-background="new 0 0 7.4835285 7.3992737" xml:space="preserve"><path d="M3.720697,-2.1944059 A0.25,0.25 344.5238374 0,1 3.4797616,-1.8776965 L-2.5819179,-1.8776965 -2.5819179,-1.3776965 3.4797616,-1.3776965 A0.25,0.25 270 0,1 3.720697,-1.0609872 A1.1869,1.1869 15.4761626 0,1 2.5768321,-0.1907965 L1.7476414,-0.1907965 A1.0131,1.0131 270 0,0 0.821886,0.4107836 A0.25,0.25 23.9662623 0,1 0.5934398,0.5592339 L-0.7629083,0.5592339 -0.7629083,0.8767339 -0.3168122,0.8767339 A0.3175,0.3175 0 0,1 -0.3168582,0.8821369 L0.5865452,0.8821369 0.5865452,3.3821369 A0.3175,0.3175 0 0,1 0.2690452,3.6996369 L-3.4265538,3.6996369 A0.3175,0.3175 90 0,1 -3.7440538,3.3821369 L-3.7440538,0.8821369 -2.5737274,0.8821369 -2.5737274,0.5592339 -3.2406679,0.5592339 -3.2406679,-1.2228443 -3.5581679,-1.2228443 -3.5581679,0.5592339 -3.7537669,0.5592339 -3.7537669,-3.0646369 -3.5581679,-3.0646369 -3.5581679,-2.2228443 -3.2406679,-2.2228443 -3.2406679,-3.0646369 -1.5834274,-3.0646369 -1.5834274,-3.3821369 -2.0295235,-3.3821369 A0.3175,0.3175 180 0,1 -1.7120235,-3.6996369 L-0.6343122,-3.6996369 A0.3175,0.3175 270 0,1 -0.3168122,-3.3821369 L-0.7629083,-3.3821369 -0.7629083,-3.0646369 0.5768321,-3.0646369 0.5768321,-3.0645965 2.5768321,-3.0645965 A1.1869,1.1869 270 0,1 3.720697,-2.1944059z" transform="matrix(1,0,0,-1,3.7537669,3.6996369)" fill="rgb(0,0,0)" stroke-linecap="round" stroke-linejoin="round" /><path d="M-0.0787543,3.3821369 L-0.0787543,3.0646369 -3.0787543,3.0646369 -3.0787543,3.3821369 -0.0787543,3.3821369z" transform="matrix(1,0,0,-1,3.7537669,3.6996369)" fill="rgb(255,255,255)" stroke="rgb(0,0,0)" stroke-width="0.0010cm" stroke-linecap="round" stroke-linejoin="round" /></svg>